<svg width="152" height="47" viewBox="0 0 152 47" fill="none" xmlns="http://www.w3.org/2000/svg">
<path d="M0.5 45.6875L8.4375 1.71875C8.47917 1.55208 8.58333 1.46875 8.75 1.46875H18.0312C18.1979 1.46875 18.3021 1.55208 18.3438 1.71875L25.9688 45.6875C25.9896 45.8958 25.9062 46 25.7188 46H18.625C18.4167 46 18.3021 45.8958 18.2812 45.6875L17.5938 41H8.875L8.1875 45.6875C8.16667 45.8958 8.0625 46 7.875 46H0.75C0.583333 46 0.5 45.8958 0.5 45.6875ZM13.0312 16.1875L10.1562 34.1562H16.3125L13.6875 16.1875L13.3125 13.8125L13.0312 16.1875ZM37.4688 46H30.2188C30.0521 46 29.9688 45.8958 29.9688 45.6875L30.0938 1.71875C30.0938 1.55208 30.1771 1.46875 30.3438 1.46875H43.2812C45.5938 1.46875 47.7188 2.03125 49.6562 3.15625C51.5938 4.28125 53.1354 5.79167 54.2812 7.6875C55.4479 9.58333 56.0312 11.7292 56.0312 14.125C56.0312 15.6875 55.7917 17.1042 55.3125 18.375C54.8333 19.6458 54.2708 20.7188 53.625 21.5938C53 22.4688 52.4271 23.1146 51.9062 23.5312C54.2188 26.0938 55.375 29.1042 55.375 32.5625L55.4375 45.6875C55.4375 45.8958 55.3333 46 55.125 46H47.875C47.7083 46 47.625 45.9375 47.625 45.8125V32.5625C47.625 31.0208 47.0833 29.6875 46 28.5625C44.9167 27.4375 43.5833 26.875 42 26.875H37.7812L37.7188 45.6875C37.7188 45.8958 37.6354 46 37.4688 46ZM43.2812 9.125H37.7812V19.1875H43.2812C44.5938 19.1875 45.7604 18.6979 46.7812 17.7188C47.8229 16.7396 48.3438 15.5417 48.3438 14.125C48.3438 12.7708 47.8438 11.6042 46.8438 10.625C45.8438 9.625 44.6562 9.125 43.2812 9.125ZM72.625 46.625C70.3125 46.625 68.1979 46.0417 66.2812 44.875C64.3854 43.7083 62.875 42.1458 61.75 40.1875C60.6458 38.2083 60.0938 36.0104 60.0938 33.5938L60.1562 13.625C60.1562 11.25 60.6979 9.10417 61.7812 7.1875C62.8646 5.25 64.3542 3.69792 66.25 2.53125C68.1667 1.34375 70.2917 0.75 72.625 0.75C75 0.75 77.1146 1.32292 78.9688 2.46875C80.8438 3.61458 82.3333 5.16667 83.4375 7.125C84.5625 9.0625 85.125 11.2292 85.125 13.625V16.5625C85.125 16.7292 85.0417 16.8125 84.875 16.8125H77.6875C77.5208 16.8125 77.4375 16.7292 77.4375 16.5625V13.625C77.4375 12.2083 76.9792 10.9896 76.0625 9.96875C75.1458 8.94792 74 8.4375 72.625 8.4375C71.1042 8.4375 69.9375 8.95833 69.125 10C68.3125 11.0417 67.9062 12.25 67.9062 13.625V33.5938C67.9062 35.1562 68.3646 36.4375 69.2812 37.4375C70.1979 38.4167 71.3125 38.9062 72.625 38.9062C74 38.9062 75.1458 38.3646 76.0625 37.2812C76.9792 36.1771 77.4375 34.9479 77.4375 33.5938V30.625C77.4375 30.4583 77.5208 30.375 77.6875 30.375H84.9375C85.1042 30.375 85.1875 30.4583 85.1875 30.625V33.5938C85.1875 35.9896 84.625 38.1771 83.5 40.1562C82.3542 42.1146 80.8438 43.6875 78.9688 44.875C77.0938 46.0417 74.9792 46.625 72.625 46.625ZM97.3438 46H90.0938C89.9271 46 89.8438 45.8958 89.8438 45.6875L89.9062 1.71875C89.9062 1.55208 90.0104 1.46875 90.2188 1.46875H97.3438C97.5521 1.46875 97.6562 1.55208 97.6562 1.71875L97.5938 19.125H107.188V1.71875C107.188 1.55208 107.271 1.46875 107.438 1.46875H114.562C114.771 1.46875 114.875 1.55208 114.875 1.71875L115 45.6875C115 45.8958 114.896 46 114.688 46H107.5C107.292 46 107.188 45.8958 107.188 45.6875V26.875H97.5938V45.6875C97.5938 45.8958 97.5104 46 97.3438 46ZM135.156 46H127.406C127.219 46 127.115 45.8958 127.094 45.6875L118.25 1.71875C118.208 1.55208 118.292 1.46875 118.5 1.46875H125.75C125.917 1.46875 126.021 1.55208 126.062 1.71875L131.312 31.0312L136.438 1.71875C136.479 1.55208 136.583 1.46875 136.75 1.46875H143.906C144.135 1.46875 144.219 1.55208 144.156 1.71875L135.469 45.6875C135.448 45.8958 135.344 46 135.156 46ZM150.906 46H143.656C143.49 46 143.406 45.9167 143.406 45.75V38.5C143.406 38.3333 143.49 38.25 143.656 38.25H150.906C151.073 38.25 151.156 38.3333 151.156 38.5V45.75C151.156 45.9167 151.073 46 150.906 46Z" fill="black"/>
</svg>
